# xmcd
#
# Track frame offsets: 
#        150
#        13402
#        27072
#        45671
#        67648
#        85268
#        107280
#        119768
#        139753
#        150130
#        176968
#        202828
#        223507
#
# Disc length: 3276 seconds
#
# Revision: 4
# Processed by: cddbd v1.5.2PL0 Copyright (c) Steve Scherf et al.
# Submitted via: ExactAudioCopyFreeDBPlugin 1.0
#
DISCID=a30cca0d
DTITLE=Thomas Quasthoff - The Jazz Album - Watch What Happens - 2007
DYEAR=2007
DGENRE=Jazz
TTITLE0=There's A Boat That's Leavin' Soon For New York
TTITLE1=Watch What Happens
TTITLE2=Secret Love
TTITLE3=You And I
TTITLE4=Ac-Cent-Tchu-Ate The Positive
TTITLE5=I've Grown Accustomed To Her Face
TTITLE6=Can't We Be Friends?
TTITLE7=Smile
TTITLE8=They All Laughed
TTITLE9=My Funny Valentine
TTITLE10=What Are You Doing The Rest Of Your Life?
TTITLE11=In My Solitude
TTITLE12=Eins und Eins, das macht Zwei
EXTD=Thomas Quasthoff, bariton\nTill Brönner, trp flgh\nGünter Bollman
EXTD=, trb\nPeter Erskine, dr\nAxel Schlosser, trp
EXTT0=
EXTT1=
EXTT2=
EXTT3=
EXTT4=
EXTT5=
EXTT6=
EXTT7=
EXTT8=
EXTT9=
EXTT10=
EXTT11=
EXTT12=
PLAYORDER=
